<svg width="100" height="100" viewBox="0 0 100 100" xmlns="http://www.w3.org/2000/svg">
  <defs>
    <linearGradient id="featherGradient1" x1="0%" y1="0%" x2="100%" y2="100%">
      <stop offset="0%" style="stop-color:#E6E6FA;stop-opacity:0.8" />
      <stop offset="50%" style="stop-color:#DDA0DD;stop-opacity:0.9" />
      <stop offset="100%" style="stop-color:#DA70D6;stop-opacity:0.7" />
    </linearGradient>
  </defs>
  
  <!-- Main feather body -->
  <path d="M50 10 C45 15, 40 25, 38 40 C36 55, 38 70, 45 80 C52 70, 54 55, 52 40 C50 25, 50 15, 50 10 Z" 
        fill="url(#featherGradient1)" stroke="#9370DB" stroke-width="0.5" opacity="0.9"/>
  
  <!-- Feather barbs left side -->
  <path d="M38 20 C32 22, 28 25, 26 30" fill="none" stroke="#DDA0DD" stroke-width="1" opacity="0.7"/>
  <path d="M36 30 C30 32, 26 35, 24 40" fill="none" stroke="#DDA0DD" stroke-width="1" opacity="0.7"/>
  <path d="M35 40 C29 42, 25 45, 23 50" fill="none" stroke="#DDA0DD" stroke-width="1" opacity="0.7"/>
  <path d="M36 50 C30 52, 26 55, 24 60" fill="none" stroke="#DDA0DD" stroke-width="1" opacity="0.7"/>
  <path d="M38 60 C32 62, 28 65, 26 70" fill="none" stroke="#DDA0DD" stroke-width="1" opacity="0.7"/>
  
  <!-- Feather barbs right side -->
  <path d="M52 20 C58 22, 62 25, 64 30" fill="none" stroke="#DDA0DD" stroke-width="1" opacity="0.7"/>
  <path d="M54 30 C60 32, 64 35, 66 40" fill="none" stroke="#DDA0DD" stroke-width="1" opacity="0.7"/>
  <path d="M55 40 C61 42, 65 45, 67 50" fill="none" stroke="#DDA0DD" stroke-width="1" opacity="0.7"/>
  <path d="M54 50 C60 52, 64 55, 66 60" fill="none" stroke="#DDA0DD" stroke-width="1" opacity="0.7"/>
  <path d="M52 60 C58 62, 62 65, 64 70" fill="none" stroke="#DDA0DD" stroke-width="1" opacity="0.7"/>
  
  <!-- Central rachis (spine) -->
  <line x1="50" y1="10" x2="45" y2="85" stroke="#9370DB" stroke-width="1.5" opacity="0.8"/>
</svg>
