<svg width="100" height="100" viewBox="0 0 100 100" xmlns="http://www.w3.org/2000/svg">
  <defs>
    <linearGradient id="featherGradient2" x1="0%" y1="0%" x2="100%" y2="100%">
      <stop offset="0%" style="stop-color:#F8F8FF;stop-opacity:0.8" />
      <stop offset="30%" style="stop-color:#E6E6FA;stop-opacity:0.9" />
      <stop offset="70%" style="stop-color:#DDA0DD;stop-opacity:0.8" />
      <stop offset="100%" style="stop-color:#DA70D6;stop-opacity:0.6" />
    </linearGradient>
  </defs>
  
  <!-- Main feather body - more curved -->
  <path d="M50 8 C48 12, 44 20, 42 35 C40 50, 42 65, 46 78 C50 82, 54 78, 56 65 C58 50, 56 35, 52 20 C51 12, 50 8, 50 8 Z" 
        fill="url(#featherGradient2)" stroke="#B19CD9" stroke-width="0.5" opacity="0.85"/>
  
  <!-- Delicate feather barbs -->
  <g opacity="0.6">
    <!-- Left barbs -->
    <path d="M42 18 C36 20, 32 22, 30 26" fill="none" stroke="#C8A2C8" stroke-width="0.8"/>
    <path d="M41 25 C35 27, 31 29, 29 33" fill="none" stroke="#C8A2C8" stroke-width="0.8"/>
    <path d="M40 32 C34 34, 30 36, 28 40" fill="none" stroke="#C8A2C8" stroke-width="0.8"/>
    <path d="M40 39 C34 41, 30 43, 28 47" fill="none" stroke="#C8A2C8" stroke-width="0.8"/>
    <path d="M40 46 C34 48, 30 50, 28 54" fill="none" stroke="#C8A2C8" stroke-width="0.8"/>
    <path d="M41 53 C35 55, 31 57, 29 61" fill="none" stroke="#C8A2C8" stroke-width="0.8"/>
    <path d="M42 60 C36 62, 32 64, 30 68" fill="none" stroke="#C8A2C8" stroke-width="0.8"/>
    
    <!-- Right barbs -->
    <path d="M52 18 C58 20, 62 22, 64 26" fill="none" stroke="#C8A2C8" stroke-width="0.8"/>
    <path d="M53 25 C59 27, 63 29, 65 33" fill="none" stroke="#C8A2C8" stroke-width="0.8"/>
    <path d="M54 32 C60 34, 64 36, 66 40" fill="none" stroke="#C8A2C8" stroke-width="0.8"/>
    <path d="M54 39 C60 41, 64 43, 66 47" fill="none" stroke="#C8A2C8" stroke-width="0.8"/>
    <path d="M54 46 C60 48, 64 50, 66 54" fill="none" stroke="#C8A2C8" stroke-width="0.8"/>
    <path d="M53 53 C59 55, 63 57, 65 61" fill="none" stroke="#C8A2C8" stroke-width="0.8"/>
    <path d="M52 60 C58 62, 62 64, 64 68" fill="none" stroke="#C8A2C8" stroke-width="0.8"/>
  </g>
  
  <!-- Central spine -->
  <line x1="50" y1="8" x2="46" y2="82" stroke="#9370DB" stroke-width="1.2" opacity="0.9"/>
</svg>
